<svg xmlns="http://www.w3.org/2000/svg" xmlns:xlink="http://www.w3.org/1999/xlink" viewBox="0,0,256,256" width="64px" height="64px" fill-rule="nonzero"><defs><radialGradient cx="32" cy="30.50058" r="31.259" gradientUnits="userSpaceOnUse" id="color-1"><stop offset="0" stop-color="#000000" stop-opacity="0"></stop><stop offset="0.106" stop-color="#000000" stop-opacity="0"></stop><stop offset="0.437" stop-color="#000000" stop-opacity="0"></stop><stop offset="0.744" stop-color="#000000" stop-opacity="0"></stop><stop offset="1" stop-color="#000000" stop-opacity="0"></stop></radialGradient><linearGradient x1="19" y1="29" x2="19" y2="7.787" gradientUnits="userSpaceOnUse" id="color-2"><stop offset="0" stop-color="#ea543f"></stop><stop offset="0.007" stop-color="#ff4d3e"></stop><stop offset="0.989" stop-color="#fd4d8e"></stop></linearGradient><linearGradient x1="43" y1="30" x2="43" y2="8.129" gradientUnits="userSpaceOnUse" id="color-3"><stop offset="0" stop-color="#ea543f"></stop><stop offset="0.007" stop-color="#ff4d3e"></stop><stop offset="0.989" stop-color="#fd4d8e"></stop></linearGradient><linearGradient x1="19" y1="56" x2="19" y2="34.787" gradientUnits="userSpaceOnUse" id="color-4"><stop offset="0" stop-color="#ea543f"></stop><stop offset="0.007" stop-color="#ff4d3e"></stop><stop offset="0.989" stop-color="#fd4d8e"></stop></linearGradient><linearGradient x1="43" y1="57" x2="43" y2="35" gradientUnits="userSpaceOnUse" id="color-5"><stop offset="0" stop-color="#ea543f"></stop><stop offset="0.007" stop-color="#ff4d3e"></stop><stop offset="0.989" stop-color="#fd4d8e"></stop></linearGradient></defs><g fill="none" fill-rule="nonzero" stroke="none" stroke-width="1" stroke-linecap="butt" stroke-linejoin="miter" stroke-miterlimit="10" stroke-dasharray="" stroke-dashoffset="0" font-family="none" font-weight="none" font-size="none" text-anchor="none" style="mix-blend-mode: normal"><g transform="scale(4,4)"><path d="M63.98,57.412c-0.211,2.075 -2.084,3.588 -4.17,3.588h-55.81c-2.34,0 -4.221,-2.031 -3.98,-4.411c0.21,-2.076 2.084,-3.589 4.17,-3.589h9.81c1.11,0 2,-0.9 2,-2c0,-1.1 -0.89,-2 -2,-2h-9.869c-1.451,0 -2.789,-0.972 -3.071,-2.395c-0.379,-1.912 1.092,-3.605 2.94,-3.605h6.5c2.485,0 4.5,-2.015 4.5,-4.5v0c0,-2.485 -2.015,-4.5 -4.5,-4.5h-6.5c-2.341,0 -4.221,-2.031 -3.98,-4.412c0.21,-2.075 2.084,-3.588 4.17,-3.588h8.81l1.001,-4h-9c-2.34,0 -4.221,-2.031 -3.98,-4.411c0.21,-2.076 2.084,-3.589 4.17,-3.589h16.809h2h4c2.209,0 4,-1.791 4,-4v0c0,-2.209 -1.791,-4 -4,-4h-12c-0.83,0 -1.58,-0.34 -2.12,-0.88c-0.587,-0.587 -0.938,-1.423 -0.872,-2.34c0.115,-1.598 1.559,-2.78 3.161,-2.78h32.331c1.466,0 2.634,1.254 2.491,2.749c-0.125,1.305 -1.32,2.251 -2.631,2.251h-0.86c-0.83,0 -1.5,0.67 -1.5,1.5c0,0.83 0.67,1.5 1.5,1.5h13c1.466,0 2.634,1.254 2.491,2.749c-0.125,1.305 -1.32,2.251 -2.631,2.251h-0.238c-0.997,0 -1.928,0.675 -2.093,1.658c-0.21,1.249 0.759,2.342 1.971,2.342h-0.19c2.09,0 3.96,1.51 4.17,3.59c0.24,2.38 -1.65,4.41 -3.98,4.41h-18v4h13.5c2.485,0 4.5,2.015 4.5,4.5v0c0,2.485 -2.015,4.5 -4.5,4.5h-7.5v4h12.37c1.67,0 3.2,1.115 3.549,2.749c0.48,2.241 -1.253,4.251 -3.419,4.251h-11.388c-1.057,0 -2.015,0.77 -2.105,1.823c-0.053,0.619 0.173,1.188 0.582,1.587c0.361,0.37 0.861,0.59 1.411,0.59h11c2.331,0 4.221,2.031 3.98,4.412z" fill="url(#color-1)"></path><path d="M23.278,19l4.028,-5.415c1.138,-1.53 0.846,-3.713 -0.652,-4.876c-1.498,-1.163 -3.635,-0.865 -4.773,0.666l-2.881,3.873l-2.881,-3.873c-1.138,-1.53 -3.275,-1.828 -4.773,-0.666c-1.498,1.163 -1.79,3.345 -0.652,4.876l4.028,5.415l-4.028,5.415c-1.138,1.53 -0.846,3.713 0.652,4.876v0c1.498,1.162 3.635,0.864 4.773,-0.666l2.881,-3.873l2.881,3.873c1.138,1.53 3.275,1.828 4.773,0.666v0c1.498,-1.162 1.79,-3.345 0.652,-4.876z" fill="url(#color-2)"></path><path d="M43,30c-6.065,0 -11,-4.906 -11,-10.936c0,-6.03 4.935,-10.935 11,-10.935c6.065,0 11,4.906 11,10.936c0,6.03 -4.935,10.935 -11,10.935zM43,14.094c-2.757,0 -5,2.23 -5,4.971c0,2.741 2.243,4.971 5,4.971c2.757,0 5,-2.23 5,-4.971c0,-2.741 -2.243,-4.971 -5,-4.971z" fill="url(#color-3)"></path><path d="M23.278,46l4.028,-5.415c1.138,-1.53 0.846,-3.713 -0.652,-4.876c-1.498,-1.163 -3.635,-0.865 -4.773,0.666l-2.881,3.873l-2.881,-3.873c-1.138,-1.53 -3.275,-1.828 -4.773,-0.666c-1.498,1.163 -1.79,3.345 -0.652,4.876l4.028,5.415l-4.028,5.415c-1.138,1.53 -0.846,3.713 0.652,4.876v0c1.498,1.162 3.635,0.864 4.773,-0.666l2.881,-3.873l2.881,3.873c1.138,1.53 3.275,1.828 4.773,0.666v0c1.498,-1.162 1.79,-3.345 0.652,-4.876z" fill="url(#color-4)"></path><g fill="url(#color-5)"><path d="M43,57c-6.065,0 -11,-4.935 -11,-11c0,-6.065 4.935,-11 11,-11c6.065,0 11,4.935 11,11c0,6.065 -4.935,11 -11,11zM43,41c-2.757,0 -5,2.243 -5,5c0,2.757 2.243,5 5,5c2.757,0 5,-2.243 5,-5c0,-2.757 -2.243,-5 -5,-5z"></path></g></g></g></svg>